<svg xmlns="http://www.w3.org/2000/svg" xmlns:xlink="http://www.w3.org/1999/xlink" width="21" height="21" fill="none" customFrame="#000000" viewBox="0 0 21 21"><defs><clipPath id="clipPath_1"><rect width="13" height="13" x="4" y="4" fill="#FFF"/></clipPath></defs><g id="组合 53"><rect id="矩形 40" width="21" height="21" x="0" y="0" fill="#F3FFF1" fill-opacity="0" rx="6"/><rect id="矩形 40" width="19.5" height="19.5" x=".75" y=".75" stroke="#FF7618" stroke-width="1.5" rx="5.25"/><g id="svg 9" clip-path="url(#clipPath_1)" customFrame="url(#clipPath_1)"><rect id="svg 9" width="13" height="13" x="4" y="4"/><path id="矢量 77" fill="#FFA354" fill-rule="nonzero" d="M15.7724 8.57921C15.5147 7.96983 15.1452 7.42139 14.6742 6.95167C14.2045 6.48194 13.6561 6.11251 13.0467 5.85352C12.4145 5.58692 11.7442 5.45108 11.0535 5.45108C10.3629 5.45108 9.69133 5.58692 9.05911 5.85352C8.44973 6.11124 7.90129 6.48067 7.43157 6.95167C6.96184 7.42139 6.59241 7.96983 6.33342 8.57921C6.06682 9.21143 5.93098 9.88174 5.93098 10.5724C5.93098 10.7653 5.94241 10.9596 5.96399 11.1513L5.2175 10.4378C5.11594 10.3413 4.95598 10.3439 4.85823 10.4454C4.76174 10.547 4.76428 10.7069 4.86584 10.8047L6.17346 12.0552C6.22043 12.1009 6.28391 12.125 6.34866 12.125L6.35881 12.125C6.42737 12.1225 6.49211 12.0907 6.53782 12.0399L7.73752 10.6828C7.8302 10.5774 7.82004 10.4175 7.71594 10.3248C7.61057 10.2321 7.45061 10.2423 7.35793 10.3464L6.49719 11.3189C6.45784 11.0738 6.43752 10.8225 6.43752 10.5724C6.43752 8.02823 8.50686 5.95889 11.051 5.95889C13.5951 5.95889 15.6645 8.02823 15.6645 10.5724C15.6645 13.1165 13.5951 15.1858 11.051 15.1858C9.87795 15.1858 8.75949 14.7453 7.90256 13.9442C7.79973 13.849 7.63977 13.8541 7.54328 13.9569C7.4468 14.0598 7.45315 14.2197 7.55598 14.3162C8.50686 15.2049 9.74846 15.6949 11.051 15.6949C11.7429 15.6949 12.4132 15.5591 13.0442 15.2925C13.6535 15.0348 14.202 14.6653 14.6717 14.1943C15.1414 13.7246 15.5109 13.1762 15.7698 12.5668C16.0364 11.9346 16.1723 11.2643 16.1723 10.5736C16.1748 9.88174 16.039 9.21016 15.7724 8.5792L15.7724 8.57921Z"/><path id="矢量 77" fill-rule="nonzero" stroke="#FFA354" stroke-width=".8" d="M14.6742 6.95167C14.2045 6.48194 13.6561 6.11251 13.0467 5.85352C12.4145 5.58692 11.7442 5.45108 11.0535 5.45108C10.3629 5.45108 9.69133 5.58692 9.05911 5.85352C8.44973 6.11124 7.90129 6.48067 7.43157 6.95167C6.96184 7.42139 6.59241 7.96983 6.33342 8.57921C6.06682 9.21143 5.93098 9.88174 5.93098 10.5724C5.93098 10.7653 5.94241 10.9596 5.96399 11.1513L5.2175 10.4378C5.11594 10.3413 4.95598 10.3439 4.85823 10.4454C4.76174 10.547 4.76428 10.7069 4.86584 10.8047L6.17346 12.0552C6.22043 12.1009 6.28391 12.125 6.34866 12.125L6.35881 12.125C6.42737 12.1225 6.49211 12.0907 6.53782 12.0399L7.73752 10.6828C7.8302 10.5774 7.82004 10.4175 7.71594 10.3248C7.61057 10.2321 7.45061 10.2423 7.35793 10.3464L6.49719 11.3189C6.45784 11.0738 6.43752 10.8225 6.43752 10.5724C6.43752 8.02823 8.50686 5.95889 11.051 5.95889C13.5951 5.95889 15.6645 8.02823 15.6645 10.5724C15.6645 13.1165 13.5951 15.1858 11.051 15.1858C9.87795 15.1858 8.75949 14.7453 7.90256 13.9442C7.79973 13.849 7.63977 13.8541 7.54328 13.9569C7.4468 14.0598 7.45315 14.2197 7.55598 14.3162C8.50686 15.2049 9.74846 15.6949 11.051 15.6949C11.7429 15.6949 12.4132 15.5591 13.0442 15.2925C13.6535 15.0348 14.202 14.6653 14.6717 14.1943C15.1414 13.7246 15.5109 13.1762 15.7698 12.5668C16.0364 11.9346 16.1723 11.2643 16.1723 10.5736C16.1748 9.88174 16.039 9.21016 15.7724 8.5792L15.7724 8.57921C15.5147 7.96983 15.1452 7.42139 14.6742 6.95167Z"/><path id="矢量 78" fill="#FFA354" fill-rule="nonzero" d="M10.6777 7.49756C10.5089 7.49756 10.373 7.6334 10.373 7.80225L10.373 10.9583C10.373 11.1271 10.5089 11.263 10.6777 11.263L13.8338 11.263C14.0026 11.263 14.1385 11.1271 14.1385 10.9583C14.1385 10.7895 14.0026 10.6536 13.8338 10.6536L10.9824 10.6536L10.9824 7.80225C10.9824 7.63467 10.8466 7.49756 10.6777 7.49756Z"/><path id="矢量 78" fill-rule="nonzero" stroke="#FFA354" stroke-width=".8" d="M10.373 7.80225L10.373 10.9583C10.373 11.1271 10.5089 11.263 10.6777 11.263L13.8338 11.263C14.0026 11.263 14.1385 11.1271 14.1385 10.9583C14.1385 10.7895 14.0026 10.6536 13.8338 10.6536L10.9824 10.6536L10.9824 7.80225C10.9824 7.63467 10.8466 7.49756 10.6777 7.49756C10.5089 7.49756 10.373 7.6334 10.373 7.80225Z"/></g></g></svg>